<?xml version="1.0" encoding="UTF-8"?>
<svg id="Bi" xmlns="http://www.w3.org/2000/svg" viewBox="0 0 160.56 170.2">
  <defs>
    <style>
      .cls-1 {
        fill: #deebff;
      }

      .cls-2 {
        fill: #ffe4b3;
      }
    </style>
  </defs>
  <g>
    <path class="cls-2" d="M79.75,168.7c-.88,0-1.68-.05-2.39-.14-12.56-1.68-26.85-5.55-37.61-30.4L6.78,121.29l6.84.28c.06,0,5.94.24,12.15.24,9.8,0,12.79-.59,13.68-.89.26-4.09,2.61-26.4,23.13-41.19,4.49-3.23,9.59-5.89,15.18-7.91.8-.76,3.02-1.69,9.54-2.75,3.6-.58,10.99-1.56,20.09-1.56,12.34,0,28.79,1.82,37.1,10.52,16.66,17.44,16.76,32.39,11.51,50.86-5.11,19.55-59.29,39.8-76.24,39.81Z"/>
    <path d="M107.38,69.02c13.65,0,28.6,2.29,36.01,10.05,15.34,16.06,16.75,29.69,11.15,49.41-4.77,18.25-57.11,38.72-74.79,38.72-.81,0-1.54-.04-2.19-.13-10.95-1.46-25.69-4.31-36.64-30l-27.36-14s5.9.25,12.21.25c7.28,0,15.11-.33,15.15-1.73,0,0,.7-24.9,22.54-40.63,4.24-3.06,9.28-5.77,15.27-7.89.25-1.3,13.68-4.05,28.65-4.05M107.38,66.02h0c-9.2,0-16.68.99-20.33,1.58-6.03.98-8.77,1.92-10.07,2.91-5.62,2.05-10.76,4.75-15.29,8.01-19.59,14.12-23.05,34.95-23.66,41.19-1.46.25-4.82.6-12.27.6-6.18,0-12.03-.24-12.09-.24l-13.68-.57,12.19,6.24,26.4,13.51c11.04,25.12,25.68,29.08,38.57,30.79.78.1,1.65.16,2.59.16,17.73,0,72.26-20.35,77.69-40.92,3.17-11.16,3.89-19.63,2.33-27.46-1.71-8.58-6.22-16.47-14.2-24.82-8.67-9.07-25.55-10.98-38.18-10.98h0Z"/>
  </g>
  <g>
    <path class="cls-1" d="M61.62,78.68c-14.35-2.72-38.75-27.91-42.5-47.82-1.61-8.54.86-15.13,7.14-19.06,4.04-2.53,8.59-3.82,13.51-3.82,8.08,0,16.44,3.65,21.29,9.31,2.91,3.39,4.21,7.19,3.67,10.69-.92,5.99,3.12,14.29,7.03,22.32,3.42,7.02,6.64,13.65,7.1,19.37l.08,1.02-.92.45c-3.78,1.83-7.57,3.64-11.36,5.45l-4.56,2.18-.48-.09Z"/>
    <path d="M39.77,9.48c12.84,0,24.83,9.52,23.49,18.28-1.8,11.69,13.14,29.9,14.12,42.03-5.15,2.49-10.31,4.95-15.47,7.42C42.79,73.59,4.48,27.22,27.05,13.07c4.02-2.52,8.42-3.59,12.72-3.59M39.77,6.48c-5.14,0-10.09,1.4-14.31,4.05-6.85,4.29-9.55,11.42-7.82,20.61,1.76,9.33,8.15,20.6,17.54,30.91,9.05,9.95,18.83,16.72,26.16,18.11l.97.18.89-.42,4.12-1.97c3.79-1.81,7.58-3.62,11.36-5.45l1.85-.89-.16-2.05c-.48-6-3.77-12.75-7.25-19.9-3.81-7.82-7.74-15.91-6.89-21.43.61-3.95-.82-8.17-4.02-11.9-5.13-5.97-13.93-9.84-22.43-9.84h0Z"/>
  </g>
  <g>
    <path class="cls-1" d="M75.9,1.51c-39.2,1.04-5.44,70.68.53,68.62,5.97-2.06,16.45-4.15,23.7-4.24,7.25-.09,14.97-65.42-24.23-64.38"/>
    <path d="M76.14,71.68c-1.35,0-2.59-1.13-3.46-2.05-7.01-7.46-22.44-40.61-14.98-58.52C60.67,3.99,66.78.25,75.86.01h0c10.86-.28,19.19,4.19,24.73,13.32,10.25,16.89,7.18,43.89,3.1,51.26-1.02,1.84-2.21,2.78-3.53,2.8-7.28.09-17.53,2.19-23.23,4.16-.26.09-.52.13-.78.13ZM75.94,3.01c-10.16.27-15.88,5.49-17,15.51-2.16,19.25,13.18,48.66,17.19,50.12,5.96-2.03,16.49-4.16,23.99-4.26,2.18-.79,6.47-17.35,3.26-34.59-4.22-22.63-17.26-27.04-27.43-26.78h0Z"/>
  </g>
  <g>
    <path d="M51.55,91.07c-.93.16-4.56,50.59,12,73,2,2-23.8-12.96-23.54-26,1.3-.38-28.46-15-28.46-15,0,0,27.98,1.07,28,0,0,0,8-26,12-32Z"/>
    <path d="M63.63,165.25c-.11,0-.24-.02-.37-.05-2.22-.63-24.08-14.17-24.24-26.79-2.43-1.72-18.12-9.63-27.9-14.44l-4.23-2.08,4.71.18c11.63.45,24.64.67,27.14.26,1.1-3.53,8.02-25.59,11.85-31.61.22-.47.59-.61.8-.64l2.3-.4-1.3,1.94h0c-1.2,3.99-3.64,50.65,11.94,71.8.55.6.29,1.16.2,1.32-.16.27-.46.51-.9.51ZM41.02,138.53c.25,8.89,13.34,18.97,19.63,22.98-11.24-18.71-11.7-51.24-10.83-64.73-3.85,9.06-8.77,24.83-9.27,26.45v.28s-.34.35-.34.35c-.34.33-1.22,1.16-24.02.38,25,12.36,24.94,13.06,24.87,13.88l-.04.41Z"/>
  </g>
  <g>
    <path d="M146.59,109.92c-.23,0-2.18-.38-2.69-13.12,2.09,3.78,5.01,9.31,4.14,11.9-.18.53-.51.88-1.08,1.12-.18.08-.3.1-.37.1h0Z"/>
    <path d="M146.11,104.86c.35,1,.58,1.91.6,2.61-.19-.58-.4-1.41-.6-2.61M143.62,94.63c-.64,0-1.28.34-1.26.93.19,6.2.75,15.86,4.24,15.86.3,0,.62-.07.97-.22,4.89-2.14.25-10.47-2.85-16.03-.21-.37-.65-.54-1.09-.54h0Z"/>
  </g>
  <g>
    <path d="M86.17,67.57s-12.38-22.5-7.45-22.5c4.93,0,8.73,22.08,8.73,22.08l-1.28.42Z"/>
    <path d="M85.45,69.39l-.6-1.09c-3.22-5.86-10.49-19.87-8.35-23.5.46-.78,1.27-1.22,2.21-1.22,5.59,0,9,16.31,10.21,23.33l.22,1.27-3.69,1.21ZM79.02,46.66c-.15,2.04,2.53,8.6,5.86,15.24-1.99-8.91-4.47-14.47-5.86-15.24Z"/>
  </g>
  <g>
    <path d="M85.05,70.57s-26.48,53.36,21.11,90.39c0,0-18.35,4.64-18.79,4.79s-38.82-55.27-15.32-92.18l13-3Z"/>
    <path d="M87.35,167.26c-.74,0-1.21-.61-1.44-.9-1.98-2.55-11.33-16.78-17.48-34.83-8-23.47-7.18-43.79,2.35-58.77l.33-.52,16.69-3.85-1.41,2.84c-.07.13-6.51,13.35-7.14,30.81-.84,23.29,8.52,42.71,27.82,57.74l2.42,1.88-2.98.75c-7.22,1.83-18.16,4.6-18.71,4.77-.17.05-.32.08-.47.08ZM87.02,164.29s-.08.02-.11.03c.02,0,.06-.02.11-.03ZM73,74.89c-20.87,33.78,10.79,83.05,14.96,89.15,2.75-.71,10.18-2.6,14.92-3.8-23.01-19.16-27.22-42.22-26.61-58.42.5-13.45,4.22-24.24,6.21-29.12l-9.48,2.19Z"/>
  </g>
  <g>
    <path d="M66.19,75.51s-18.18-17.48-13.79-19.13c4.38-1.65,15.37,17.87,15.37,17.87l-1.58,1.26Z"/>
    <path d="M66.1,77.5l-.95-.91c-4.75-4.57-15.72-15.66-14.87-19.77.18-.87.75-1.52,1.6-1.84,2.65-.99,6.06,1.74,11.08,8.86,3.3,4.68,6.01,9.48,6.12,9.68l.63,1.11-3.6,2.88ZM53.25,57.78c.51,2.17,5.75,8.38,11.39,14.09-4.85-8.02-9.66-13.69-11.39-14.09Z"/>
  </g>
  <g>
    <path d="M137.9,114.21c-.14,0-.29-.03-.52-.27-1.42-1.48-2.12-6.76-1.87-14.17,3.39,5.94,4.9,10.64,4.16,12.96-.2.63-.57,1.04-1.17,1.31-.23.1-.44.16-.6.16Z"/>
    <path d="M137.07,106.33c1.22,3.05,1.46,5.04,1.17,5.95-.02.06-.04.12-.06.16-.38-.82-.89-2.68-1.1-6.11M135.62,98.01c-.71,0-1.56.52-1.59,1.24-.23,6.08-.05,16.46,3.87,16.46.37,0,.78-.09,1.22-.29,5.03-2.26.4-11.76-2.65-16.98-.17-.3-.49-.42-.85-.42h0Z"/>
  </g>
  <g>
    <path d="M116.87,69.33s-29.4,41.21,18.18,78.24c0,0-15.56,8.86-16,9s-44.49-50.09-20.98-87l18.8-.24Z"/>
    <path d="M119,158.11c-.72,0-1.71-.88-5.49-5.75-9-11.62-36.82-51.99-16.7-83.59l.44-.68,22.57-.29-1.71,2.41c-.07.1-7.18,10.24-8.49,24.63-1.76,19.22,7.12,36.57,26.38,51.56l1.77,1.38-1.95,1.11c-15.69,8.93-16.1,9.07-16.28,9.12-.18.06-.34.11-.52.11ZM98.91,71.06c-6.19,10.16-10.7,27.64,1.51,54.15,6.88,14.93,16.31,26.61,18.92,29.52,2.25-1.24,8.2-4.61,13.05-7.36-13.42-10.93-28.04-28.64-25.76-52.94,1.04-11.08,5.22-19.6,7.51-23.56l-15.23.2Z"/>
  </g>
  <g>
    <path d="M89.98,67.34s-.17-18.28,3.14-16.78c3.32,1.5-1.58,16.99-1.58,16.99l-1.57-.21Z"/>
    <path d="M92.6,69.2l-4.1-.54v-1.3c-.07-5.95.25-16.21,2.99-18,.68-.44,1.5-.5,2.25-.16,3.94,1.78,1.21,12.55-.77,18.81l-.38,1.2ZM92.73,52.69c-.53,1.6-.96,5.01-1.15,9.05.93-3.97,1.38-7.45,1.15-9.05Z"/>
  </g>
</svg>