<?xml version="1.0" encoding="UTF-8"?>
<svg id="Play_knap" data-name="Play knap" xmlns="http://www.w3.org/2000/svg" viewBox="0 0 306.09 243">
  <defs>
    <style>
      .cls-1 {
        fill: #bfcee5;
      }

      .cls-1, .cls-2 {
        stroke: #70671a;
        stroke-miterlimit: 10;
        stroke-width: 2px;
      }

      .cls-3 {
        fill: #ffc1ae;
      }

      .cls-4 {
        fill: #f61a04;
      }

      .cls-5 {
        fill: #70671a;
      }

      .cls-2 {
        fill: #fff4ea;
      }
    </style>
  </defs>
  <g>
    <path class="cls-4" d="M198.82,45.88s40.75-57.27,58.58,9.08c0,0,63.35-2.3,17.81,45.89,0,0,68.59,26-3.82,73.25,0,0,27.61,57.14-54.09,33.87,0,0-31.2,74.77-69.32.99,0,0-75.76,49.02-64.37-35.65,0,0-50.01,38.13-46.05-26.24,0,0-68.33-7.92-16.84-44.56,0,0-33.67-34.66,15.85-36.64,0,0-14.94-47.19,38.58-29.04,0,0,33.24-64.47,75.57-19.2,0,0,50.94-39.25,48.12,28.27Z"/>
    <path class="cls-5" d="M182.61,243c-12.17,0-24-10.73-35.22-31.91-5.19,3.15-23.47,13.5-39.64,13.5-5.17,0-10.11-1.06-14.35-3.74-10.33-6.55-14.26-21.47-11.71-44.37-4.98,3.3-15.7,9.55-25.62,9.55-3.04,0-6.01-.59-8.71-2.03-8.53-4.55-12.36-16.54-11.39-35.62-6.42-.92-32.16-5.42-35.59-18.78-2.02-7.86,4.07-17.05,18.09-27.32-3.53-4-13.46-16.49-9.53-26.31,2.71-6.79,11.35-10.65,25.68-11.5-1.3-5.2-4.02-19.9,4.25-28.01,6.64-6.51,18.6-7,35.56-1.45,3.24-5.84,18.71-31.58,41.16-34.69,12-1.67,23.88,3.49,35.3,15.32,4.73-3.39,23.43-15.68,36.69-8.8,8.65,4.48,12.97,16.09,12.86,34.55,5.95-7.19,20.28-22.22,34.52-19.66,10.31,1.85,18.24,12.53,23.59,31.73,5.51-.03,27.85.61,33.4,12.87,3.72,8.23-1.04,19.66-14.17,33.99,6.52,2.88,26.33,12.97,28.18,30.09,1.52,14.01-9.48,28.9-32.68,44.26,2.02,4.71,8.4,21.83-.46,32.36-8.13,9.67-26.53,10.6-54.68,2.76-2.77,6.13-15.75,32.44-34.68,33.21-.28.01-.57.02-.85.02ZM148.54,206.81l.76,1.47c11.12,21.51,22.58,32.17,34.03,31.71,19.08-.78,32.44-32.27,32.57-32.59l.51-1.23,1.28.37c27.24,7.76,45.5,7.26,52.82-1.45,8.89-10.58-.4-30.13-.49-30.33l-.57-1.19,1.1-.72c22.91-14.94,33.81-29.12,32.41-42.12-1.97-18.26-28.03-28.36-28.3-28.46l-2.1-.8,1.54-1.63c13.32-14.1,18.4-24.96,15.09-32.27-5.38-11.89-31.49-11.1-31.76-11.09l-1.19.04-.31-1.15c-5.02-18.7-12.27-29.02-21.53-30.69-16.35-2.96-34.2,21.84-34.37,22.09l-2.93,4.12.21-5.05c.83-19.85-2.91-32.08-11.13-36.33-13.26-6.88-34.37,9.16-34.58,9.32l-1.08.83-.93-1c-11-11.76-22.3-16.94-33.61-15.37-23.27,3.22-39.37,33.92-39.53,34.23l-.59,1.15-1.22-.41c-16.43-5.57-27.77-5.46-33.7.35-8.65,8.47-3.03,26.64-2.97,26.82l.59,1.87-1.96.08c-14.17.57-22.55,3.83-24.9,9.71-3.92,9.81,9.93,24.24,10.07,24.39l1.22,1.25-1.42,1.01c-13.88,9.88-20.04,18.33-18.3,25.12,1.7,6.63,10.83,10.81,18.18,13.16,8.24,2.63,16.18,3.57,16.26,3.58l1.41.16-.09,1.42c-1.15,18.62,2.13,30.12,9.73,34.19,12.66,6.76,33.7-9.07,33.91-9.23l2.88-2.19-.48,3.58c-3.17,23.55.17,38.62,9.93,44.8,17.85,11.32,51.8-10.39,52.14-10.61l1.39-.9Z"/>
  </g>
  <g>
    <path class="cls-3" d="M195.23,54s32.14-45.16,46.2,7.16c0,0,49.96-1.82,14.04,36.19,0,0,54.09,20.51-3.02,57.76,0,0,21.77,45.07-42.66,26.71,0,0-24.6,58.97-54.67.78,0,0-59.75,38.66-50.76-28.12,0,0-39.44,30.07-36.32-20.7,0,0-53.89-6.25-13.28-35.14,0,0-26.55-27.33,12.5-28.9,0,0-11.78-37.22,30.43-22.9,0,0,26.21-50.84,59.59-15.14,0,0,40.17-30.95,37.95,22.29Z"/>
    <path class="cls-5" d="M182.44,209.77c-9.66,0-19.04-8.42-27.9-25.04-5.93,3.56-28.91,16.21-42.62,7.52-8.16-5.17-11.33-16.81-9.45-34.63-5.51,3.56-17.94,10.32-26.83,5.58-6.8-3.63-9.88-13.08-9.17-28.1-5.54-.82-25.34-4.47-28.04-15-1.61-6.28,3.13-13.57,14.11-21.67-2.99-3.45-10.42-13.11-7.35-20.82,2.16-5.41,8.94-8.52,20.15-9.25-1.06-4.44-2.92-15.7,3.53-22.02,5.3-5.19,14.75-5.63,28.11-1.3,2.83-5.04,15-24.85,32.57-27.29,9.51-1.32,18.9,2.71,27.92,11.98,4.1-2.9,18.63-12.2,29.04-6.81,6.79,3.52,10.26,12.48,10.31,26.66,5.02-5.92,16.01-16.92,26.96-14.95,8.22,1.48,14.53,9.89,18.79,25.02h.03c4.81,0,21.99.69,26.36,10.34,2.97,6.55-.71,15.57-10.93,26.82,5.55,2.51,20.57,10.48,22.01,23.81,1.21,11.13-7.44,22.92-25.69,35.06,1.71,4.07,6.44,17.34-.51,25.61-6.47,7.7-21,8.49-43.19,2.35-2.42,5.29-12.65,25.52-27.52,26.13-.23,0-.46.01-.68.01ZM155.7,180.45l.76,1.47c8.7,16.84,17.64,25.17,26.55,24.84,14.85-.61,25.3-25.26,25.41-25.51l.51-1.23,1.28.37c21.35,6.08,35.63,5.72,41.32-1.03,6.87-8.17-.35-23.43-.43-23.58l-.57-1.19,1.1-.72c17.96-11.71,26.51-22.79,25.42-32.92-1.53-14.2-21.91-22.11-22.11-22.19l-2.1-.8,1.54-1.63c10.26-10.86,14.36-19.54,11.84-25.1-4.15-9.19-24.54-8.56-24.74-8.56l-1.19.04-.31-1.15c-3.93-14.62-9.55-22.68-16.73-23.97-12.67-2.28-26.66,17.1-26.8,17.29l-2.93,4.11.21-5.05c.65-15.52-2.25-25.06-8.6-28.36-10.28-5.34-26.76,7.19-26.93,7.32l-1.08.83-.93-1c-8.6-9.2-17.42-13.24-26.23-12.02-18.19,2.52-30.81,26.58-30.94,26.83l-.59,1.15-1.22-.41c-12.83-4.35-21.66-4.28-26.25.2-6.67,6.53-2.31,20.69-2.27,20.83l.59,1.87-1.96.08c-10.88.44-17.57,3.01-19.35,7.46-3.02,7.54,7.76,18.78,7.87,18.9l1.22,1.25-1.42,1.01c-10.68,7.6-15.62,14.33-14.31,19.47,2.13,8.31,20.13,12.18,26.89,12.96l1.41.16-.09,1.42c-.9,14.55,1.63,23.52,7.51,26.66,9.8,5.24,26.24-7.12,26.4-7.25l2.88-2.19-.48,3.58c-2.48,18.44.1,30.22,7.68,35.02,13.9,8.82,40.51-8.19,40.78-8.37l1.39-.9Z"/>
  </g>
  <g>
    <path class="cls-1" d="M110.23,96.98c-.11,1-.24,1.88-.37,2.65-.14.78-.4,1.51-.79,2.2s-.9,1.41-1.53,2.16c-.64.75-1.45,1.59-2.45,2.53-2.6,2.43-5.47,3.84-8.63,4.23-.72.28-1.66.59-2.82.95-1.16.36-2.54.76-4.15,1.2l.25,5.39c.11.78.19,1.55.25,2.32.05.78.08,1.63.08,2.57v2.16c0,.77-.1,1.49-.29,2.16-.19.66-.55,1.22-1.08,1.66-.53.44-1.29.66-2.28.66-1.05,0-1.82-.2-2.32-.58-.5-.39-.83-.93-1-1.62-.17-.69-.26-1.51-.29-2.45-.03-.94-.12-1.93-.29-2.99v.08c-.06-.72-.11-1.58-.17-2.57-.06-.88-.11-1.98-.17-3.28-.06-1.3-.14-2.83-.25-4.6v-.5c0-.33-.01-.77-.04-1.33-.03-.55-.07-1.13-.12-1.74-.06-.61-.1-1.15-.12-1.62-.03-.47-.04-.79-.04-.95,0-.33.01-.92.04-1.78.03-.86.05-1.78.08-2.78.03-1,.05-1.95.08-2.86.03-.91.04-1.62.04-2.12,0-.88-.04-1.69-.12-2.41-.08-.72-.18-1.38-.29-1.99,0-.11.01-.47.04-1.08.03-.61.07-1.29.12-2.03.05-.75.14-1.49.25-2.24.11-.75.25-1.37.42-1.87,1.49-.72,3.29-1.08,5.39-1.08h.66c2.38-.72,4.59-1.08,6.64-1.08.77,0,2.96.33,6.55,1l3.65,1.99c1,.61,1.81,1.23,2.45,1.87.63.64,1.15,1.4,1.54,2.28.39.89.66,1.92.83,3.11.17,1.19.25,2.64.25,4.35ZM102.43,98.15c.17-1.05.25-1.99.25-2.82,0-1.49-.61-2.86-1.82-4.11-1.22-1.24-3.21-1.87-5.97-1.87-1.27,0-3.21.44-5.81,1.33.11,1.05.19,2.31.25,3.77.05,1.47.08,3.17.08,5.1-.05.11-.08.66-.08,1.66v1.78c0,.69.03,1.48.08,2.36.5-.05,1.06-.17,1.7-.33.63-.17,1.23-.34,1.78-.54.55-.19,1.21-.46,1.99-.79,3.98-.94,6.5-2.79,7.55-5.56Z"/>
    <path class="cls-1" d="M147.88,114.98c1.6.33,2.41,1.58,2.41,3.73,0,1.16-.28,2.07-.83,2.74-.55.66-1.27,1-2.16,1-.28,0-.8-.04-1.58-.12-.78-.08-1.6-.17-2.49-.25-.89-.08-1.74-.17-2.57-.25-.83-.08-1.41-.12-1.74-.12h-.91c-.28,0-.55.03-.83.08-.94-.05-2.03-.18-3.28-.37-1.24-.19-2.46-.41-3.65-.66-1.19-.25-2.24-.51-3.15-.79-.91-.28-1.45-.53-1.62-.75-.55-1.66-.83-3.87-.83-6.64v-1.37c0-.47.03-.95.08-1.45l.5-5.89c.05-.44.08-.87.08-1.29v-2.24c0-.3-.06-.59-.17-.87.39-2.1.66-3.86.83-5.27s.25-2.5.25-3.28v-.66c0-.77.33-3.24,1-7.38.83-1.77,2.1-2.65,3.82-2.65,1.05,0,1.93.4,2.65,1.2.72.8,1.08,1.89,1.08,3.28-.22.78-.43,1.74-.62,2.9-.19,1.16-.37,2.54-.54,4.15v.66c0,.5-.04,1.26-.12,2.28-.08,1.02-.18,2.07-.29,3.15-.11,1.08-.21,2.05-.29,2.9s-.12,1.34-.12,1.45c0,.61.03,1,.08,1.16-.22,2.32-.39,4.26-.5,5.81-.11,1.55-.17,2.74-.17,3.57,0,.55.03.91.08,1.08,2.88.33,4.78.5,5.72.5.44,0,.9-.01,1.37-.04.47-.03.95-.04,1.45-.04,2.1,0,4.45.25,7.05.75Z"/>
    <path class="cls-1" d="M198.81,125.93c-.22,1.05-1.24,1.58-3.07,1.58-1.49,0-2.57-.33-3.24-1-.28-.94-.66-2.09-1.16-3.44-.5-1.35-1.08-2.92-1.74-4.69-.33-2.16-.65-3.68-.95-4.56-.3-.88-.68-1.55-1.12-1.99-.83.06-2.02.15-3.57.29-1.55.14-3.18.3-4.89.5-1.71.19-3.32.44-4.81.75-1.49.3-2.57.62-3.24.95-.28,1.38-.61,2.9-1,4.56-.39,1.66-.86,3.43-1.41,5.31-.17.55-.55.95-1.16,1.2-.61.25-1.36.37-2.24.37s-1.65-.15-2.28-.46c-.64-.3-.95-.76-.95-1.37,0-1.11.66-4.4,1.99-9.87-.06-.22-.08-.55-.08-1,0-.72.1-1.62.29-2.7.19-1.08.4-2.12.62-3.11.22-1,.43-1.85.62-2.57.19-.72.29-1.11.29-1.16l2.65-7.38c.11-.72.4-1.69.87-2.9.47-1.22.98-2.46,1.53-3.73.55-1.27,1.08-2.47,1.58-3.61.5-1.13.83-2,1-2.61.5-1.83,1.83-2.74,3.98-2.74,1.77,0,2.9.66,3.4,1.99.66,1.22,1.27,2.3,1.83,3.24.55.94,1.15,1.98,1.78,3.11.63,1.13,1.23,2.21,1.78,3.24.55,1.02,1.02,1.94,1.41,2.74.39.8.61,1.34.66,1.62.44,1.05,1,2.25,1.66,3.61.66,1.36,1.46,2.86,2.41,4.52.55.72,1.06,1.67,1.53,2.86.47,1.19.9,2.39,1.29,3.61.39,1.22.72,2.32,1,3.32.28,1,.52,1.66.75,1.99,0,.39.12.98.37,1.78.25.8.5,1.65.75,2.53.25.89.48,1.71.71,2.49.22.78.33,1.33.33,1.66,0,.28-.06.64-.17,1.08ZM184.3,105.03c-.44-1.33-.84-2.46-1.2-3.4-.36-.94-.78-1.88-1.24-2.82-.47-.94-1.01-2-1.62-3.19-.61-1.19-1.38-2.72-2.32-4.6-1.27,2.32-2.18,5.01-2.74,8.05-1.16,2.27-1.99,4.67-2.49,7.22,1.71-.5,3.1-.75,4.15-.75.39,0,.66.03.83.08.94-.22,2.07-.33,3.4-.33s2.41-.08,3.23-.25Z"/>
    <path class="cls-1" d="M245.26,85.21c-.44,1.11-.83,1.95-1.16,2.53-.33.58-.72,1.13-1.16,1.66-.44.53-1.04,1.16-1.78,1.91s-1.78,1.81-3.11,3.19c-1.11,1.16-2,2.12-2.7,2.86-.69.75-1.36,1.42-1.99,2.03-.64.61-1.31,1.26-2.03,1.95-.72.69-1.63,1.56-2.74,2.61,0,.77-.03,1.71-.08,2.82-.06,1.11-.08,2.38-.08,3.82,0,.5.03,1.09.08,1.78.05.69.12,1.37.21,2.03.08.66.15,1.29.21,1.87.05.58.08,1.04.08,1.37v2.32c0,2.05.11,3.71.33,4.98-.44,1.66-1.74,2.49-3.9,2.49-.94,0-1.67-.28-2.2-.83-.53-.55-.93-1.29-1.2-2.2-.28-.91-.46-1.96-.54-3.15-.08-1.19-.12-2.45-.12-3.77,0-.44.01-.83.04-1.16.03-.33.07-.64.12-.91-.11-2.38-.21-4.37-.29-5.97-.08-1.6-.12-2.82-.12-3.65v-.91c-.83-.88-1.88-2.04-3.15-3.48-1.27-1.44-2.77-3.12-4.48-5.06-.28-.55-.72-1.24-1.33-2.07-.61-.83-1.23-1.64-1.87-2.45-.64-.8-1.19-1.55-1.66-2.24-.47-.69-.71-1.2-.71-1.54,0-.94.4-1.85,1.2-2.74.8-.88,1.75-1.33,2.86-1.33.5,0,.9.07,1.2.21.3.14.61.36.91.66.3.3.63.72,1,1.24.36.53.84,1.18,1.45,1.95.61.78,1.12,1.47,1.53,2.07.42.61.76,1.13,1.04,1.58.17.17.51.53,1.04,1.08.52.55,1.09,1.15,1.7,1.78.61.64,1.17,1.23,1.7,1.78.53.55.9.91,1.12,1.08.61-.55,1.38-1.22,2.32-1.99.94-.77,2.04-1.69,3.32-2.74.22-.44.77-1.3,1.66-2.57.88-1.27,1.89-2.61,3.03-4.02,1.13-1.41,2.25-2.71,3.36-3.9,1.11-1.19,1.99-1.95,2.65-2.28.39.17.83.43,1.33.79.5.36.97.78,1.41,1.24.44.47.8.95,1.08,1.45.28.5.42.97.42,1.41v.42Z"/>
  </g>
  <g>
    <path class="cls-2" d="M115,97.42c-.11,1-.24,1.88-.37,2.65-.14.78-.4,1.51-.79,2.2-.39.69-.9,1.41-1.53,2.16-.64.75-1.45,1.59-2.45,2.53-2.6,2.43-5.47,3.84-8.63,4.23-.72.28-1.66.59-2.82.95-1.16.36-2.54.76-4.15,1.2l.25,5.39c.11.78.19,1.55.25,2.32.05.78.08,1.63.08,2.57v2.16c0,.77-.1,1.49-.29,2.16-.19.66-.55,1.22-1.08,1.66-.53.44-1.29.66-2.28.66-1.05,0-1.83-.2-2.32-.58-.5-.39-.83-.93-1-1.62-.17-.69-.26-1.51-.29-2.45-.03-.94-.12-1.93-.29-2.99v.08c-.06-.72-.11-1.58-.17-2.57-.06-.88-.11-1.98-.17-3.28-.06-1.3-.14-2.83-.25-4.6v-.5c0-.33-.01-.77-.04-1.33-.03-.55-.07-1.13-.12-1.74-.06-.61-.1-1.15-.12-1.62-.03-.47-.04-.79-.04-.95,0-.33.01-.92.04-1.78.03-.86.05-1.78.08-2.78.03-1,.05-1.95.08-2.86.03-.91.04-1.62.04-2.12,0-.88-.04-1.69-.12-2.41-.08-.72-.18-1.38-.29-1.99,0-.11.01-.47.04-1.08.03-.61.07-1.29.12-2.03.05-.75.14-1.49.25-2.24.11-.75.25-1.37.42-1.87,1.49-.72,3.29-1.08,5.39-1.08h.66c2.38-.72,4.59-1.08,6.64-1.08.77,0,2.96.33,6.55,1l3.65,1.99c1,.61,1.81,1.23,2.45,1.87.63.64,1.15,1.4,1.53,2.28.39.89.66,1.92.83,3.11.17,1.19.25,2.64.25,4.35ZM107.21,98.58c.17-1.05.25-1.99.25-2.82,0-1.49-.61-2.86-1.83-4.11-1.22-1.24-3.21-1.87-5.97-1.87-1.27,0-3.21.44-5.81,1.33.11,1.05.19,2.31.25,3.77.05,1.47.08,3.17.08,5.1-.06.11-.08.66-.08,1.66v1.78c0,.69.03,1.48.08,2.36.5-.05,1.06-.17,1.7-.33.63-.17,1.23-.34,1.78-.54.55-.19,1.22-.46,1.99-.79,3.98-.94,6.5-2.79,7.55-5.56Z"/>
    <path class="cls-2" d="M152.66,115.42c1.6.33,2.41,1.58,2.41,3.73,0,1.16-.28,2.07-.83,2.74-.55.66-1.27,1-2.16,1-.28,0-.8-.04-1.58-.12-.78-.08-1.6-.17-2.49-.25-.89-.08-1.74-.17-2.57-.25-.83-.08-1.41-.12-1.74-.12h-.91c-.28,0-.55.03-.83.08-.94-.05-2.03-.18-3.28-.37-1.24-.19-2.46-.41-3.65-.66-1.19-.25-2.24-.51-3.15-.79-.91-.28-1.45-.53-1.62-.75-.55-1.66-.83-3.87-.83-6.64v-1.37c0-.47.03-.95.08-1.45l.5-5.89c.05-.44.08-.87.08-1.29v-2.24c0-.3-.06-.59-.17-.87.39-2.1.66-3.86.83-5.27s.25-2.5.25-3.28v-.66c0-.77.33-3.24,1-7.38.83-1.77,2.1-2.65,3.82-2.65,1.05,0,1.93.4,2.65,1.2.72.8,1.08,1.89,1.08,3.28-.22.78-.43,1.74-.62,2.9-.19,1.16-.37,2.54-.54,4.15v.66c0,.5-.04,1.26-.12,2.28-.08,1.02-.18,2.07-.29,3.15-.11,1.08-.21,2.05-.29,2.9s-.12,1.34-.12,1.45c0,.61.03,1,.08,1.16-.22,2.32-.39,4.26-.5,5.81-.11,1.55-.17,2.74-.17,3.57,0,.55.03.91.08,1.08,2.88.33,4.78.5,5.72.5.44,0,.9-.01,1.37-.04.47-.03.95-.04,1.45-.04,2.1,0,4.45.25,7.05.75Z"/>
    <path class="cls-2" d="M203.59,126.37c-.22,1.05-1.24,1.58-3.07,1.58-1.49,0-2.57-.33-3.24-1-.28-.94-.66-2.09-1.16-3.44-.5-1.35-1.08-2.92-1.74-4.69-.33-2.16-.65-3.68-.95-4.56-.3-.88-.68-1.55-1.12-1.99-.83.06-2.02.15-3.57.29-1.55.14-3.18.3-4.89.5-1.71.19-3.32.44-4.81.75-1.49.3-2.57.62-3.24.95-.28,1.38-.61,2.9-1,4.56-.39,1.66-.86,3.43-1.41,5.31-.17.55-.55.95-1.16,1.2-.61.25-1.36.37-2.24.37s-1.65-.15-2.28-.46c-.64-.3-.95-.76-.95-1.37,0-1.11.66-4.4,1.99-9.87-.06-.22-.08-.55-.08-1,0-.72.1-1.62.29-2.7.19-1.08.4-2.12.62-3.11.22-1,.43-1.85.62-2.57.19-.72.29-1.11.29-1.16l2.65-7.38c.11-.72.4-1.69.87-2.9.47-1.22.98-2.46,1.53-3.73.55-1.27,1.08-2.47,1.58-3.61.5-1.13.83-2,1-2.61.5-1.83,1.83-2.74,3.98-2.74,1.77,0,2.9.66,3.4,1.99.66,1.22,1.27,2.3,1.83,3.24.55.94,1.15,1.98,1.78,3.11.63,1.13,1.23,2.21,1.78,3.24.55,1.02,1.02,1.94,1.41,2.74.39.8.61,1.34.66,1.62.44,1.05,1,2.25,1.66,3.61.66,1.36,1.46,2.86,2.41,4.52.55.72,1.06,1.67,1.53,2.86.47,1.19.9,2.39,1.29,3.61.39,1.22.72,2.32,1,3.32.28,1,.52,1.66.75,1.99,0,.39.12.98.37,1.78.25.8.5,1.65.75,2.53.25.89.48,1.71.71,2.49.22.78.33,1.33.33,1.66,0,.28-.06.64-.17,1.08ZM189.07,105.47c-.44-1.33-.84-2.46-1.2-3.4-.36-.94-.78-1.88-1.24-2.82-.47-.94-1.01-2-1.62-3.19-.61-1.19-1.38-2.72-2.32-4.6-1.27,2.32-2.18,5.01-2.74,8.05-1.16,2.27-1.99,4.67-2.49,7.22,1.71-.5,3.1-.75,4.15-.75.39,0,.66.03.83.08.94-.22,2.07-.33,3.4-.33s2.41-.08,3.23-.25Z"/>
    <path class="cls-2" d="M250.04,85.64c-.44,1.11-.83,1.95-1.16,2.53-.33.58-.72,1.13-1.16,1.66-.44.53-1.04,1.16-1.78,1.91s-1.78,1.81-3.11,3.19c-1.11,1.16-2,2.12-2.7,2.86-.69.75-1.36,1.42-1.99,2.03-.64.61-1.31,1.26-2.03,1.95-.72.69-1.63,1.56-2.74,2.61,0,.77-.03,1.71-.08,2.82-.06,1.11-.08,2.38-.08,3.82,0,.5.03,1.09.08,1.78.05.69.12,1.37.21,2.03.08.66.15,1.29.21,1.87.05.58.08,1.04.08,1.37v2.32c0,2.05.11,3.71.33,4.98-.44,1.66-1.74,2.49-3.9,2.49-.94,0-1.67-.28-2.2-.83-.53-.55-.93-1.29-1.2-2.2-.28-.91-.46-1.96-.54-3.15-.08-1.19-.12-2.45-.12-3.77,0-.44.01-.83.04-1.16.03-.33.07-.64.12-.91-.11-2.38-.21-4.37-.29-5.97-.08-1.6-.12-2.82-.12-3.65v-.91c-.83-.88-1.88-2.04-3.15-3.48-1.27-1.44-2.77-3.12-4.48-5.06-.28-.55-.72-1.24-1.33-2.07-.61-.83-1.23-1.64-1.87-2.45-.64-.8-1.19-1.55-1.66-2.24-.47-.69-.71-1.2-.71-1.54,0-.94.4-1.85,1.2-2.74.8-.88,1.75-1.33,2.86-1.33.5,0,.9.07,1.2.21.3.14.61.36.91.66.3.3.63.72,1,1.24.36.53.84,1.18,1.45,1.95.61.78,1.12,1.47,1.53,2.07.42.61.76,1.13,1.04,1.58.17.17.51.53,1.04,1.08.52.55,1.09,1.15,1.7,1.78.61.64,1.17,1.23,1.7,1.78.53.55.9.91,1.12,1.08.61-.55,1.38-1.22,2.32-1.99.94-.77,2.04-1.69,3.32-2.74.22-.44.77-1.3,1.66-2.57.88-1.27,1.89-2.61,3.03-4.02,1.13-1.41,2.25-2.71,3.36-3.9,1.11-1.19,1.99-1.95,2.65-2.28.39.17.83.43,1.33.79.5.36.97.78,1.41,1.24.44.47.8.95,1.08,1.45.28.5.42.97.42,1.41v.42Z"/>
  </g>
</svg>